#!OML:ASF H:\Martial Arts Walks\Project 1\Capture day 1\Session 1\male.ASF
:FULLY-SPECIFIED
:DEGREES
1189
root -2.26473 14.1854 23.1748 5.96843 -13.2962 -4.76509
lowerback 20.2216 4.20913 2.16332
upperback -0.990436 6.18456 0.707469
thorax -12.3163 2.7521 -2.3043
lowerneck -0.222609 -2.70139 -6.24126
upperneck -4.33004 -3.46309 6.14718
head -1.10532 -1.72244 3.09386
rclavicle -2.62023e-014 1.21756e-015
rhumerus 30.1335 53.6799 -59.4762
rradius 122.018
rwrist -46.5868
rhand -3.57898 -30.7646
rfingers 7.12502
rthumb 22.1582 -59.5148
lclavicle -2.62023e-014 1.21756e-015
lhumerus -17.3385 -18.7562 91.6583
lradius 84.2938
lwrist -2.44018
lhand -16.3862 29.4709
lfingers 7.12502
lthumb 9.82756 -300.778
rfemur -38.708 -5.01507 32.7234
rtibia 77.6618
rfoot -27.6709 -28.7223
rtoes -11.4462
lfemur -61.9116 9.4687 -17.4741
ltibia 45.65
lfoot -4.67448 17.4543
ltoes -3.90694
1190
root -2.31863 14.1736 22.9539 5.84344 -10.8286 -4.77723
lowerback 20.571 3.86572 2.47939
upperback -0.910643 5.84255 0.939453
thorax -12.4336 2.57693 -2.14713
lowerneck -0.131887 -3.1874 -6.4317
upperneck -4.47477 -4.11448 6.22121
head -1.11887 -2.0471 3.15878
rclavicle 6.55989e-015 3.27995e-015
rhumerus 37.9099 53.1048 -53.7685
rradius 122.704
rwrist -46.5204
rhand -3.00275 -31.5076
rfingers 7.12502
rthumb 22.7113 -60.191
lclavicle 6.55989e-015 3.27995e-015
lhumerus -16.3655 -21.2019 93.0191
lradius 82.7641
lwrist -2.20516
lhand -16.0266 30.4476
lfingers 7.12502
lthumb 10.1745 -299.818
rfemur -39.4037 -4.8975 33.0936
rtibia 77.6033
rfoot -27.3811 -29.0843
rtoes -10.7782
lfemur -63.3531 9.11246 -18.8389
ltibia 49.7658
lfoot -5.19343 17.079
ltoes -4.93852
1191
root -2.37315 14.1559 22.7371 5.73082 -8.33613 -4.80695
lowerback 20.8827 3.50214 2.7871
upperback -0.844477 5.47797 1.19665
thorax -12.5499 2.39374 -1.94469
lowerneck -0.068031 -3.64645 -6.61453
upperneck -4.61703 -4.72909 6.28289
head -1.12813 -2.35284 3.21696
rclavicle -3.30976e-014 -2.78299e-014
rhumerus 44.9703 52.0038 -48.6477
rradius 123.046
rwrist -46.6435
rhand -2.23129 -32.1384
rfingers 7.12502
rthumb 23.4515 -60.7292
lclavicle -3.30976e-014 -2.78299e-014
lhumerus -15.2535 -23.8222 94.2868
lradius 81.1607
lwrist -1.84555
lhand -15.5678 31.4543
lfingers 7.12502
lthumb 10.6171 -298.834
rfemur -40.2175 -4.95749 33.4907
rtibia 77.6566
rfoot -27.0329 -29.5771
rtoes -10.026
lfemur -64.6943 8.54366 -19.9182
ltibia 54.1054
lfoot -5.78847 16.312
ltoes -6.30627
1192
root -2.42727 14.134 22.5251 5.63361 -5.83155 -4.80707
lowerback 21.1476 3.12597 3.06227
upperback -0.799526 5.09096 1.45227
thorax -12.6677 2.20311 -1.71284
lowerneck -0.016754 -4.08216 -6.7828
upperneck -4.75741 -5.31219 6.33579
head -1.13587 -2.64265 3.2686
rclavicle -2.01269e-014 1.78906e-015
rhumerus 51.0589 50.5483 -44.3562
rradius 123.066
rwrist -46.7851
rhand -1.3164 -32.6682
rfingers 7.12502
rthumb 24.3289 -61.1441
lclavicle -2.01269e-014 1.78906e-015
lhumerus -14.0217 -26.6352 95.4362
lradius 79.497
lwrist -1.25725
lhand -15.0351 32.4637
lfingers 7.12502
lthumb 11.1309 -297.851
rfemur -41.1705 -5.24556 33.8699
rtibia 77.8301
rfoot -26.6561 -30.1602
rtoes -9.16129
lfemur -65.8972 7.8138 -20.8088
ltibia 58.5609
lfoot -6.51779 15.331
ltoes -7.71581
1193
root -2.47988 14.11 22.3182 5.55685 -3.32991 -4.73362
lowerback 21.3601 2.74697 3.28756
upperback -0.781218 4.68567 1.67894
thorax -12.788 2.00697 -1.47366
lowerneck 0.0336931 -4.49957 -6.93
upperneck -4.88847 -5.87116 6.38362
head -1.14162 -2.92059 3.31388
rclavicle -2.57923e-014 9.93923e-015
rhumerus 56.0909 48.9126 -40.9596
rradius 122.794
rwrist -46.8321
rhand -0.356012 -33.1317
rfingers 7.12502
rthumb 25.2493 -61.481
lclavicle -2.57923e-014 9.93923e-015
lhumerus -12.6816 -29.6667 96.4441
lradius 77.7761
lwrist -0.362684
lhand -14.4885 33.4668
lfingers 7.12502
lthumb 11.6581 -296.878
rfemur -42.2683 -5.79013 34.1814
rtibia 78.1197
rfoot -26.2891 -30.7743
rtoes -8.16175
lfemur -66.916 6.97279 -21.5988
ltibia 63.0291
lfoot -7.37475 14.3491
ltoes -8.90087
1194
root -2.53001 14.0861 22.1164 5.50827 -0.845414 -4.55388
lowerback 21.5154 2.37488 3.45295
upperback -0.791839 4.26847 1.85548
thorax -12.9089 1.80803 -1.24749
lowerneck 0.0939688 -4.90593 -7.04655
upperneck -5.00201 -6.41653 6.42142
head -1.14461 -3.19225 3.34946
rclavicle -3.77691e-015 -2.06736e-014
rhumerus 60.1039 47.2376 -38.3977
rradius 122.268
rwrist -46.7415
rhand 0.53277 -33.5705
rfingers 7.12502
rthumb 26.1006 -61.7969
lclavicle -3.77691e-015 -2.06736e-014
lhumerus -11.2362 -32.9397 97.2906
lradius 75.9948
lwrist 0.876674
lhand -14.0016 34.4673
lfingers 7.12502
lthumb 12.1276 -295.904
rfemur -43.498 -6.59539 34.3814
rtibia 78.5073
rfoot -25.9652 -31.3601
rtoes -7.04101
lfemur -67.7047 6.06788 -22.356
ltibia 67.4194
lfoot -8.2922 13.5626
ltoes -9.69647
1195
root -2.57698 14.0644 21.9196 5.49446 1.60629 -4.253
lowerback 21.611 2.01916 3.55646
upperback -0.829036 3.84853 1.97123
thorax -13.0249 1.61022 -1.04872
lowerneck 0.165099 -5.30526 -7.13316
upperneck -5.08628 -6.95407 6.44812
head -1.14119 -3.46057 3.37484
rclavicle -9.0447e-015 -5.56597e-015
rhumerus 63.2026 45.6158 -36.5458
rradius 121.524
rwrist -46.5315
rhand 1.24042 -34.0172
rfingers 7.12502
rthumb 26.7779 -62.1418
lclavicle -9.0447e-015 -5.56597e-015
lhumerus -9.67683 -36.4663 97.9558
lradius 74.1491
lwrist 2.45002
lhand -13.6451 35.4652
lfingers 7.12502
lthumb 12.4713 -294.927
rfemur -44.8249 -7.63886 34.4401
rtibia 78.9625
rfoot -25.6987 -31.8661
rtoes -5.85682
lfemur -68.2206 5.14545 -23.1127
ltibia 71.658
lfoot -9.18422 13.1013
ltoes -10.0348
1196
root -2.6204 14.0462 21.7275 5.5188 4.00907 -3.83649
lowerback 21.6458 1.68708 3.60317
upperback -0.886583 3.43563 2.02807
thorax -13.1279 1.41785 -0.882165
lowerneck 0.242307 -5.69704 -7.2015
upperneck -5.13124 -7.48308 6.46689
head -1.12714 -3.72509 3.39283
rclavicle 6.55989e-015 7.55382e-015
rhumerus 65.5235 44.0955 -35.2589
rradius 120.585
rwrist -46.2604
rhand 1.68773 -34.493
rfingers 7.12502
rthumb 27.2059 -62.5513
lclavicle 6.55989e-015 7.55382e-015
lhumerus -7.98355 -40.2374 98.4174
lradius 72.2387
lwrist 4.29362
lhand -13.4602 36.4526
lfingers 7.12502
lthumb 12.6496 -293.95
rfemur -46.2 -8.88225 34.3501
rtibia 79.4486
rfoot -25.4848 -32.2584
rtoes -4.68885
lfemur -68.4316 4.24974 -23.8613
ltibia 75.6886
lfoot -9.97949 13.0054
ltoes -9.9658
1197
root -2.66013 14.0322 21.5399 5.57823 6.34749 -3.3271
lowerback 21.6233 1.38337 3.60175
upperback -0.955356 3.03904 2.03884
thorax -13.2093 1.23517 -0.742391
lowerneck 0.314485 -6.07631 -7.27327
upperneck -5.13026 -7.99629 6.48703
head -1.0979 -3.98185 3.40994
rclavicle -2.78299e-014 5.56597e-015
rhumerus 67.2139 42.6901 -34.3981
rradius 119.467
rwrist -46.0001
rhand 1.83973 -35.0044
rfingers 7.12502
rthumb 27.3513 -63.0398
lclavicle -2.78299e-014 5.56597e-015
lhumerus -6.12326 -44.2212 98.6451
lradius 70.2702
lwrist 6.29175
lhand -13.4407 37.4061
lfingers 7.12502
lthumb 12.6684 -292.998
rfemur -47.5701 -10.2814 34.1274
rtibia 79.9284
rfoot -25.3024 -32.5232
rtoes -3.60803
lfemur -68.3187 3.42162 -24.5594
ltibia 79.4684
lfoot -10.648 13.2315
ltoes -9.58054
